<mxfile host="app.diagrams.net" agent="Mozilla/5.0 (Windows NT 10.0; Win64; x64) AppleWebKit/537.36 (KHTML, like Gecko) Chrome/135.0.0.0 Safari/537.36" version="26.2.12">
  <diagram name="Page-1" id="c7488fd3-1785-93aa-aadb-54a6760d102a">
    <mxGraphModel dx="1576" dy="1684" grid="1" gridSize="10" guides="1" tooltips="1" connect="1" arrows="1" fold="1" page="1" pageScale="1" pageWidth="1100" pageHeight="850" background="none" math="0" shadow="0">
      <root>
        <mxCell id="0" />
        <mxCell id="1" parent="0" />
        <mxCell id="RowB69yYH_yy7_1fVhI2-18" style="edgeStyle=orthogonalEdgeStyle;rounded=0;orthogonalLoop=1;jettySize=auto;html=1;exitX=1;exitY=0.3333333333333333;exitDx=0;exitDy=0;exitPerimeter=0;" edge="1" parent="1" source="RowB69yYH_yy7_1fVhI2-1" target="RowB69yYH_yy7_1fVhI2-16">
          <mxGeometry relative="1" as="geometry" />
        </mxCell>
        <mxCell id="RowB69yYH_yy7_1fVhI2-1" value="User&lt;div&gt;&lt;br&gt;&lt;/div&gt;" style="shape=umlActor;verticalLabelPosition=bottom;verticalAlign=top;html=1;outlineConnect=0;" vertex="1" parent="1">
          <mxGeometry x="270" y="245" width="30" height="60" as="geometry" />
        </mxCell>
        <mxCell id="RowB69yYH_yy7_1fVhI2-29" style="edgeStyle=orthogonalEdgeStyle;rounded=0;orthogonalLoop=1;jettySize=auto;html=1;exitX=1;exitY=0.5;exitDx=0;exitDy=0;entryX=0;entryY=0.5;entryDx=0;entryDy=0;" edge="1" parent="1" source="RowB69yYH_yy7_1fVhI2-16" target="RowB69yYH_yy7_1fVhI2-27">
          <mxGeometry relative="1" as="geometry" />
        </mxCell>
        <mxCell id="RowB69yYH_yy7_1fVhI2-40" style="edgeStyle=orthogonalEdgeStyle;rounded=0;orthogonalLoop=1;jettySize=auto;html=1;exitX=1;exitY=0.5;exitDx=0;exitDy=0;entryX=0;entryY=0.5;entryDx=0;entryDy=0;" edge="1" parent="1" source="RowB69yYH_yy7_1fVhI2-16" target="RowB69yYH_yy7_1fVhI2-21">
          <mxGeometry relative="1" as="geometry" />
        </mxCell>
        <mxCell id="RowB69yYH_yy7_1fVhI2-16" value="Front-end" style="whiteSpace=wrap;html=1;aspect=fixed;" vertex="1" parent="1">
          <mxGeometry x="450" y="225" width="80" height="80" as="geometry" />
        </mxCell>
        <mxCell id="RowB69yYH_yy7_1fVhI2-21" value="Node.js Backend" style="whiteSpace=wrap;html=1;aspect=fixed;" vertex="1" parent="1">
          <mxGeometry x="700" y="100" width="80" height="80" as="geometry" />
        </mxCell>
        <mxCell id="RowB69yYH_yy7_1fVhI2-23" value="" style="shape=cylinder3;whiteSpace=wrap;html=1;boundedLbl=1;backgroundOutline=1;size=15;" vertex="1" parent="1">
          <mxGeometry x="710" y="-30" width="60" height="80" as="geometry" />
        </mxCell>
        <mxCell id="RowB69yYH_yy7_1fVhI2-24" value="Supabase DB" style="text;html=1;align=center;verticalAlign=middle;whiteSpace=wrap;rounded=0;" vertex="1" parent="1">
          <mxGeometry x="710" y="-70" width="60" height="30" as="geometry" />
        </mxCell>
        <mxCell id="RowB69yYH_yy7_1fVhI2-27" value="Uvicorn (python) backend" style="whiteSpace=wrap;html=1;aspect=fixed;" vertex="1" parent="1">
          <mxGeometry x="700" y="325" width="80" height="80" as="geometry" />
        </mxCell>
        <mxCell id="RowB69yYH_yy7_1fVhI2-30" value="" style="rounded=0;whiteSpace=wrap;html=1;" vertex="1" parent="1">
          <mxGeometry x="880" y="64" width="120" height="60" as="geometry" />
        </mxCell>
        <mxCell id="RowB69yYH_yy7_1fVhI2-31" value="" style="shape=actor;whiteSpace=wrap;html=1;" vertex="1" parent="1">
          <mxGeometry x="890" y="81.5" width="20" height="25" as="geometry" />
        </mxCell>
        <mxCell id="RowB69yYH_yy7_1fVhI2-32" value="Categorization Agent" style="text;html=1;align=center;verticalAlign=middle;whiteSpace=wrap;rounded=0;" vertex="1" parent="1">
          <mxGeometry x="920" y="79" width="60" height="30" as="geometry" />
        </mxCell>
        <mxCell id="RowB69yYH_yy7_1fVhI2-33" value="" style="rounded=0;whiteSpace=wrap;html=1;" vertex="1" parent="1">
          <mxGeometry x="881" y="333" width="120" height="60" as="geometry" />
        </mxCell>
        <mxCell id="RowB69yYH_yy7_1fVhI2-34" value="" style="shape=actor;whiteSpace=wrap;html=1;" vertex="1" parent="1">
          <mxGeometry x="891" y="349.5" width="20" height="25" as="geometry" />
        </mxCell>
        <mxCell id="RowB69yYH_yy7_1fVhI2-35" value="Chatbot" style="text;html=1;align=center;verticalAlign=middle;whiteSpace=wrap;rounded=0;" vertex="1" parent="1">
          <mxGeometry x="921" y="348" width="60" height="30" as="geometry" />
        </mxCell>
        <mxCell id="RowB69yYH_yy7_1fVhI2-36" value="" style="rounded=0;whiteSpace=wrap;html=1;" vertex="1" parent="1">
          <mxGeometry x="880" y="160" width="120" height="60" as="geometry" />
        </mxCell>
        <mxCell id="RowB69yYH_yy7_1fVhI2-37" value="" style="shape=actor;whiteSpace=wrap;html=1;" vertex="1" parent="1">
          <mxGeometry x="890" y="177.5" width="20" height="25" as="geometry" />
        </mxCell>
        <mxCell id="RowB69yYH_yy7_1fVhI2-38" value="Summarization Agent" style="text;html=1;align=center;verticalAlign=middle;whiteSpace=wrap;rounded=0;" vertex="1" parent="1">
          <mxGeometry x="920" y="175" width="60" height="30" as="geometry" />
        </mxCell>
        <mxCell id="RowB69yYH_yy7_1fVhI2-45" value="" style="endArrow=none;html=1;rounded=0;entryX=0;entryY=0.5;entryDx=0;entryDy=0;exitX=1;exitY=0.5;exitDx=0;exitDy=0;" edge="1" parent="1" source="RowB69yYH_yy7_1fVhI2-27" target="RowB69yYH_yy7_1fVhI2-33">
          <mxGeometry width="50" height="50" relative="1" as="geometry">
            <mxPoint x="640" y="280" as="sourcePoint" />
            <mxPoint x="690" y="230" as="targetPoint" />
          </mxGeometry>
        </mxCell>
        <mxCell id="RowB69yYH_yy7_1fVhI2-48" value="" style="endArrow=none;html=1;rounded=0;exitX=1;exitY=0.5;exitDx=0;exitDy=0;entryX=0;entryY=0.5;entryDx=0;entryDy=0;" edge="1" parent="1" source="RowB69yYH_yy7_1fVhI2-21" target="RowB69yYH_yy7_1fVhI2-30">
          <mxGeometry width="50" height="50" relative="1" as="geometry">
            <mxPoint x="960" y="250" as="sourcePoint" />
            <mxPoint x="1010" y="200" as="targetPoint" />
            <Array as="points">
              <mxPoint x="830" y="140" />
              <mxPoint x="830" y="95" />
            </Array>
          </mxGeometry>
        </mxCell>
        <mxCell id="RowB69yYH_yy7_1fVhI2-49" value="" style="endArrow=none;html=1;rounded=0;entryX=0;entryY=0.5;entryDx=0;entryDy=0;" edge="1" parent="1" target="RowB69yYH_yy7_1fVhI2-36">
          <mxGeometry width="50" height="50" relative="1" as="geometry">
            <mxPoint x="830" y="140" as="sourcePoint" />
            <mxPoint x="1010" y="200" as="targetPoint" />
            <Array as="points">
              <mxPoint x="830" y="190" />
            </Array>
          </mxGeometry>
        </mxCell>
        <mxCell id="RowB69yYH_yy7_1fVhI2-50" value="" style="endArrow=none;html=1;rounded=0;entryX=0.5;entryY=1;entryDx=0;entryDy=0;entryPerimeter=0;exitX=0.5;exitY=0;exitDx=0;exitDy=0;" edge="1" parent="1" source="RowB69yYH_yy7_1fVhI2-21" target="RowB69yYH_yy7_1fVhI2-23">
          <mxGeometry width="50" height="50" relative="1" as="geometry">
            <mxPoint x="920" y="130" as="sourcePoint" />
            <mxPoint x="970" y="80" as="targetPoint" />
          </mxGeometry>
        </mxCell>
        <mxCell id="RowB69yYH_yy7_1fVhI2-51" value="BERT NLP" style="ellipse;whiteSpace=wrap;html=1;" vertex="1" parent="1">
          <mxGeometry x="881" y="425" width="120" height="80" as="geometry" />
        </mxCell>
        <mxCell id="RowB69yYH_yy7_1fVhI2-52" value="" style="endArrow=none;html=1;rounded=0;" edge="1" parent="1">
          <mxGeometry width="50" height="50" relative="1" as="geometry">
            <mxPoint x="820" y="365" as="sourcePoint" />
            <mxPoint x="880" y="470" as="targetPoint" />
            <Array as="points">
              <mxPoint x="820" y="470" />
            </Array>
          </mxGeometry>
        </mxCell>
        <mxCell id="RowB69yYH_yy7_1fVhI2-53" value="" style="shape=cylinder3;whiteSpace=wrap;html=1;boundedLbl=1;backgroundOutline=1;size=15;" vertex="1" parent="1">
          <mxGeometry x="1130" y="205.5" width="60" height="80" as="geometry" />
        </mxCell>
        <mxCell id="RowB69yYH_yy7_1fVhI2-54" value="WQ Reference" style="text;html=1;align=center;verticalAlign=middle;whiteSpace=wrap;rounded=0;" vertex="1" parent="1">
          <mxGeometry x="1130" y="290" width="60" height="30" as="geometry" />
        </mxCell>
        <mxCell id="RowB69yYH_yy7_1fVhI2-55" value="" style="shape=cylinder3;whiteSpace=wrap;html=1;boundedLbl=1;backgroundOutline=1;size=15;" vertex="1" parent="1">
          <mxGeometry x="1130" y="450" width="60" height="80" as="geometry" />
        </mxCell>
        <mxCell id="RowB69yYH_yy7_1fVhI2-56" value="Email Semantic" style="text;html=1;align=center;verticalAlign=middle;whiteSpace=wrap;rounded=0;" vertex="1" parent="1">
          <mxGeometry x="1130" y="536.5" width="60" height="30" as="geometry" />
        </mxCell>
        <mxCell id="RowB69yYH_yy7_1fVhI2-57" value="" style="endArrow=none;html=1;rounded=0;exitX=1;exitY=0.5;exitDx=0;exitDy=0;" edge="1" parent="1" source="RowB69yYH_yy7_1fVhI2-33" target="RowB69yYH_yy7_1fVhI2-53">
          <mxGeometry width="50" height="50" relative="1" as="geometry">
            <mxPoint x="1001.0000000000002" y="358" as="sourcePoint" />
            <mxPoint x="1141.4" y="283.48" as="targetPoint" />
            <Array as="points">
              <mxPoint x="1070" y="363" />
              <mxPoint x="1070" y="246" />
            </Array>
          </mxGeometry>
        </mxCell>
        <mxCell id="RowB69yYH_yy7_1fVhI2-58" value="" style="endArrow=none;html=1;rounded=0;exitX=0;exitY=0;exitDx=0;exitDy=52.5;exitPerimeter=0;" edge="1" parent="1" source="RowB69yYH_yy7_1fVhI2-55">
          <mxGeometry width="50" height="50" relative="1" as="geometry">
            <mxPoint x="1000" y="400" as="sourcePoint" />
            <mxPoint x="1070" y="360" as="targetPoint" />
            <Array as="points">
              <mxPoint x="1070" y="503" />
            </Array>
          </mxGeometry>
        </mxCell>
        <mxCell id="RowB69yYH_yy7_1fVhI2-59" value="" style="shape=cylinder3;whiteSpace=wrap;html=1;boundedLbl=1;backgroundOutline=1;size=15;" vertex="1" parent="1">
          <mxGeometry x="1130" y="323" width="60" height="80" as="geometry" />
        </mxCell>
        <mxCell id="RowB69yYH_yy7_1fVhI2-60" value="FAQs / WQ Parameters" style="text;html=1;align=center;verticalAlign=middle;whiteSpace=wrap;rounded=0;" vertex="1" parent="1">
          <mxGeometry x="1130" y="409.5" width="60" height="30" as="geometry" />
        </mxCell>
        <mxCell id="RowB69yYH_yy7_1fVhI2-63" value="" style="endArrow=none;html=1;rounded=0;entryX=0;entryY=0.5;entryDx=0;entryDy=0;entryPerimeter=0;" edge="1" parent="1" target="RowB69yYH_yy7_1fVhI2-59">
          <mxGeometry width="50" height="50" relative="1" as="geometry">
            <mxPoint x="1070" y="363" as="sourcePoint" />
            <mxPoint x="1130" y="368" as="targetPoint" />
          </mxGeometry>
        </mxCell>
        <mxCell id="RowB69yYH_yy7_1fVhI2-64" value="VDB" style="text;html=1;align=center;verticalAlign=middle;whiteSpace=wrap;rounded=0;" vertex="1" parent="1">
          <mxGeometry x="1200" y="229.5" width="60" height="30" as="geometry" />
        </mxCell>
        <mxCell id="RowB69yYH_yy7_1fVhI2-66" value="VDB" style="text;html=1;align=center;verticalAlign=middle;whiteSpace=wrap;rounded=0;" vertex="1" parent="1">
          <mxGeometry x="1201" y="485" width="60" height="30" as="geometry" />
        </mxCell>
      </root>
    </mxGraphModel>
  </diagram>
</mxfile>
